<?xml version="1.0" standalone="no"?>
<!DOCTYPE svg PUBLIC "-//W3C//DTD SVG 20010904//EN"
 "http://www.w3.org/TR/2001/REC-SVG-20010904/DTD/svg10.dtd">
<svg version="1.0" xmlns="http://www.w3.org/2000/svg"
 width="388.000000pt" height="388.000000pt" viewBox="0 0 388.000000 388.000000"
 preserveAspectRatio="xMidYMid meet">
<metadata>
Created by potrace 1.14, written by Peter Selinger 2001-2017
</metadata>
<g transform="translate(0.000000,388.000000) scale(0.100000,-0.100000)"
fill="#000000" stroke="none">
<path d="M1550 2544 c-117 -31 -208 -108 -262 -220 -45 -96 -54 -172 -32 -287
l6 -27 -319 2 -318 3 -5 245 -5 245 -85 0 -85 0 -3 -529 c-2 -391 1 -532 9
-543 9 -10 32 -13 88 -11 l76 3 3 243 2 242 369 0 c357 0 368 1 386 20 18 20
18 22 -1 73 -13 36 -19 78 -19 137 0 73 4 93 28 142 90 183 318 226 483 92 60
-49 82 -54 110 -23 62 69 186 116 273 104 117 -16 225 -110 256 -223 26 -93
31 -102 63 -102 56 0 66 45 33 142 -33 96 -104 184 -192 236 -123 74 -323 63
-436 -24 -32 -24 -38 -26 -57 -14 -134 86 -242 107 -366 74z"/>
<path d="M232 2408 c-17 -17 -18 -868 0 -886 13 -13 136 -16 156 -4 10 7 12
104 10 453 l-3 444 -75 3 c-50 2 -79 -1 -88 -10z"/>
<path d="M5 2297 c-3 -6 -4 -161 -3 -342 l3 -330 85 0 85 0 3 343 2 342 -85 0
c-60 0 -87 -4 -90 -13z"/>
</g>
</svg>
